<?xml version="1.0" encoding="utf-8"?>
<!-- Generator: Adobe Illustrator 24.0.2, SVG Export Plug-In . SVG Version: 6.00 Build 0)  -->
<svg version="1.1" id="Слой_1" xmlns="http://www.w3.org/2000/svg" xmlns:xlink="http://www.w3.org/1999/xlink" x="0px" y="0px"
	 viewBox="0 0 512 512" style="enable-background:new 0 0 512 512;" xml:space="preserve">
<style type="text/css">
	.st0{fill:#2D487F;}
	.st1{fill:#FF3767;}
</style>
<g>
	<path class="st0" d="M362.75,102.66L317.44,368.3c-6.11,40.82-23.73,73.31-52.86,97.49c-29.13,24.18-64.28,35.91-105.45,35.19
		c-25.71-0.54-48.05-6.34-67.02-17.39c-18.97-11.06-32.95-26.61-41.94-46.66c-8.99-20.05-11.96-42.83-8.9-68.37l45.31-265.91h49.89
		L91.45,369.04c-3.06,27.53,1.62,49.17,14.02,64.91c12.41,15.74,31.19,23.98,56.36,24.69c27.33,1.08,50.39-6.34,69.17-22.27
		c18.79-15.92,30.61-38.28,35.46-67.07l45.31-266.65H362.75z"/>
</g>
<g>
	<path class="st1" d="M136.69,408.88l45.31-265.64c6.11-40.82,23.73-73.31,52.86-97.49c29.13-24.18,64.28-35.91,105.45-35.19
		c25.71,0.54,48.05,6.34,67.02,17.4c18.97,11.06,32.95,26.61,41.94,46.66c8.99,20.05,11.96,42.83,8.9,68.37l-45.31,265.91h-49.89
		l45.04-266.38c3.06-27.53-1.62-49.17-14.02-64.91c-12.41-15.74-31.19-23.98-56.36-24.69c-27.33-1.08-50.38,6.34-69.17,22.27
		c-18.79,15.92-30.61,38.28-35.46,67.07l-45.31,266.65H136.69z"/>
</g>
<g>
</g>
<g>
</g>
<g>
</g>
<g>
</g>
<g>
</g>
<g>
</g>
<g>
</g>
<g>
</g>
<g>
</g>
<g>
</g>
<g>
</g>
<g>
</g>
<g>
</g>
<g>
</g>
<g>
</g>
</svg>
